<svg xmlns="http://www.w3.org/2000/svg" viewBox="0 0 57.66 68.7"><defs><style>.cls-1{fill:#87812f;}</style></defs><g id="Layer_2" data-name="Layer 2"><g id="Layer_1-2" data-name="Layer 1"><polygon class="cls-1" points="54.75 23.24 54.75 51.3 54.75 51.3 28.83 65.33 2.92 51.3 3.11 51.3 3.11 23.24 0.21 23.24 0.21 53.34 0 53.34 28.83 68.7 57.66 53.34 57.66 53.34 57.66 23.24 54.75 23.24"/><path class="cls-1" d="M36.37,17.93C30,11,29.77,0,28.94,0s-1.05,11-7.43,17.93C15.74,24.17.21,23.24.21,23.33S14,24.68,18.48,31.07c5.93,8.45,10,34.26,10.46,34.26S33.47,39.52,39.4,31.07c4.49-6.39,18.26-7.62,18.26-7.74S42.13,24.17,36.37,17.93Z"/></g></g></svg>